# xmcd CD database file
#
# Track frame offsets:
#	150
#	25687
#	48090
#	80370
#	107147
#	133247
#	159755
#	193870
#	216230
#	241415
#
# Disc length: 3483 seconds
#
# Revision: 0
# Processed by: cddbd v1.5PL3 Copyright (c) Steve Scherf et al.
# Submitted via: CDex 1.51
#
DISCID=7f0d990a
DTITLE=Jaco Pastorius - Jaco Songs
DYEAR=1900
DGENRE=Jazz
TTITLE0=Portrait of Tracy
TTITLE1=Come on, Come over
TTITLE2=John and Mary
TTITLE3=Las-Olas
TTITLE4=Okonkole Y Trompa
TTITLE5=Three Views of a Secret
TTITLE6=Dania
TTITLE7=Teen Town
TTITLE8=Continuum
TTITLE9=Las-Olas
EXTD=
EXTT0=
EXTT1=
EXTT2=
EXTT3=
EXTT4=
EXTT5=
EXTT6=
EXTT7=
EXTT8=
EXTT9=
PLAYORDER=
